<svg xmlns="http://www.w3.org/2000/svg" viewBox="0 0 32 20">
    <path fill-rule="evenodd" clip-rule="evenodd" d="M30.52.316c-.513-.177-.938.038-1.182.221A18.392 18.392 0 0115.26 7.071c-1.94 0-3.809-.3-5.565-.855l-.78-2.837s-.38-1.156-1.665-.958l.37 2.995A18.495 18.495 0 011.182.536C.94.355.515.14 0 .317A16.343 16.343 0 008.092 9.24l1.013 8.202s.452 3.138 3.397 3.138H18.8c2.944 0 3.397-3.138 3.397-3.138l.712-5.878c-1.912-.155-3.115 1.177-3.496 2.492-.64 2.214-.64 2.356-.766 2.742-.258.79-1.107.885-1.107.885h-3.778s-.849-.094-1.107-.885c-.167-.51-.998-3.488-1.835-6.51 1.412.399 2.901.613 4.44.613 6.99 0 12.949-4.403 15.26-10.585z" fill="#07BEFF"></path>
</svg>
